<svg width="180" height="103" viewBox="0 0 180 103" fill="none" xmlns="http://www.w3.org/2000/svg">
<path d="M172.469 23.6902C165.431 0.182464 132.198 8.47303 120.881 17.7532C113.808 23.5661 111.751 28.869 112.819 35.362C112.385 36.896 111.17 38.4515 107.084 40.1816C105.994 39.4654 104.603 39.2025 103.267 39.6482L9.28386 70.4346C6.9279 71.1909 5.63681 73.7051 6.41098 76.0545C7.16729 78.4105 9.67496 79.6837 12.0309 78.9274L106.014 48.141C107.32 47.7262 108.28 46.7493 108.766 45.5809C111.84 44.6846 114.255 44.5344 116.111 46.409C118.763 52.5278 123.358 56.6441 132.633 56.9924C146.576 57.4839 179.237 46.3449 172.469 23.6902Z" fill="#FFA101"/>
</svg>
