<svg width="179" height="101" viewBox="0 0 179 101" fill="none" xmlns="http://www.w3.org/2000/svg">
<path d="M68.4778 33.7043C69.3094 27.0901 68.3177 19.5258 59.6604 16.2112C48.2697 11.8606 14.0034 6.03951 11.3323 10.5108C8.66122 14.982 39.3481 19.1115 38.0489 23.6932C36.7743 28.2635 8.94078 19.6677 7.76475 24.192C6.90781 27.5022 34.7856 36.4824 34.0027 39.308C33.2264 42.1155 5.65725 34.0867 4.25143 37.8929C2.70092 42.0967 35.6822 54.6534 49.2818 56.3085C51.1432 56.5358 53.9246 56.7091 56.8789 55.4515C62.2585 53.153 64.667 47.604 65.5714 45.0068C67.2264 43.2148 69.4131 43.1103 72.201 43.7157C72.7954 44.6688 73.7185 45.3936 74.8964 45.6995L170.279 70.5522C172.695 71.1657 175.162 69.7306 175.775 67.314C176.407 64.904 174.947 62.4491 172.537 61.8175L77.1482 36.9829C75.6926 36.5963 74.2402 36.9886 73.1638 37.8656C69.9901 36.4649 68.8897 35.1026 68.44 33.7519L68.4778 33.7043Z" fill="#B3DEE5"/>
</svg>
