<svg width="756" height="441" viewBox="0 0 756 441" fill="none" xmlns="http://www.w3.org/2000/svg">
<path d="M281.239 310.451C289.162 310.451 293.901 299.862 304.12 267.984L305.823 262.763C302.935 266.947 300.306 270.686 297.9 274.13C286.089 290.939 280.683 298.64 280.535 308.563C280.535 308.859 280.535 310.414 281.239 310.414V310.451Z" fill="#B3DEE5"/>
<path d="M599.465 253.396C586.84 253.174 578.62 257.58 573.4 262.467C581.323 183.272 543.965 111.111 481.838 72.1979C501.646 60.6833 504.127 41.8378 491.872 29.5826C492.945 44.3554 473.137 53.9818 466.51 47.5396C483.43 34.8771 474.951 7.40491 455.958 0C458.068 22.1777 458.327 46.3548 413.491 30.7304C361.138 12.5143 333.221 33.137 328.482 47.9838C258.321 65.6446 201.044 121.515 183.346 197.933C179.718 192.083 173.46 186.085 162.353 182.605C134.029 173.756 115.295 209.596 126.55 235.217C136.547 257.913 162.982 265.54 178.163 255.914C183.272 346.92 252.36 415.564 345.921 430.707C439.815 445.887 527.304 402.161 560.589 316.819C571.363 331.814 599.872 333.48 616.941 314.598C635.675 293.827 629.196 253.915 599.502 253.396H599.465ZM480.246 236.106L477.432 243.807C468.953 266.947 446.369 328.334 446.369 342.736C446.369 351.511 452.033 357.176 460.808 357.176C464.437 357.176 467.324 359.916 467.324 363.433C467.324 366.951 464.399 369.913 460.808 369.913C444.406 369.913 433.373 358.99 433.373 342.699C433.373 326.409 451.441 277.536 462.252 247.842L468.25 231.293C476.099 209.855 481.764 194.379 481.764 180.347C481.764 166.314 475.877 160.576 462.696 160.576C443.295 160.576 424.006 188.122 418.341 196.971C403.198 247.472 400.384 256.358 379.095 317.523C378.169 320.263 375.652 322.04 372.69 322.04C370.468 322.04 368.543 321.114 367.284 319.411C365.988 317.634 365.581 315.301 366.247 313.154C379.909 274.796 393.646 232.959 403.938 198.267C406.197 190.565 407.345 183.938 407.345 178.57C407.345 171.276 405.679 159.021 394.534 159.021C375.8 159.021 349.882 196.415 334.332 218.963L316.968 272.205C305.046 309.155 298.455 324.187 281.239 324.187C272.501 324.187 267.059 317.856 267.059 307.674C267.281 295.271 277.573 276.425 300.455 246.547C301.862 244.695 321.559 213.965 322.151 212.854L338.405 163.204C319.967 176.607 297.122 193.009 271.464 193.009C259.691 193.009 249.546 188.899 242.807 181.457C236.402 174.349 233.625 164.87 234.736 153.985C235.032 150.838 238.142 148.135 241.475 148.135C245.325 148.135 248.213 151.245 248.213 155.355C248.213 170.942 256.469 179.569 271.501 179.569C292.717 179.569 317.597 161.501 335.776 148.283C338.146 146.58 340.515 144.914 342.737 143.396C344.44 142.248 346.032 141.138 347.439 140.138C348.587 139.286 349.845 138.879 351.289 138.879C354.177 138.879 355.769 140.249 356.621 141.397C358.213 143.507 358.176 146.173 357.695 147.802L347.809 178.125C363.952 158.243 377.096 145.655 394.978 145.655C408.826 145.655 418.896 156.466 420.562 172.497C434.817 156.207 448.96 147.987 462.696 147.987C483.541 147.987 494.537 159.243 494.537 180.532C494.945 195.971 488.799 212.891 480.246 236.291V236.106Z" fill="#B3DEE5"/>
<path d="M714.868 94.5975C667.18 91.7837 660.22 158.132 669.624 185.012C675.548 201.821 683.878 209.115 696.467 211.484C698.984 213.298 701.021 216.556 701.465 225.183C699.429 226.701 698.022 229.071 697.948 231.811L691.69 424.227C691.505 429.041 695.245 433.076 700.058 433.224C704.871 433.409 708.87 429.67 709.055 424.857L715.312 232.44C715.423 229.774 714.275 227.368 712.461 225.702C712.868 219.481 714.201 214.964 718.866 212.817C731.825 212.039 742.414 206.375 749.227 189.64C759.482 164.463 760.852 97.2633 714.868 94.5605V94.5975Z" fill="#B3DEE5"/>
<path d="M58.2764 223.702C70.7907 220.851 83.8234 214.076 84.1196 196.23C84.5268 172.757 72.4938 106.89 62.6453 105.039C52.7968 103.15 65.5332 161.39 56.3882 162.056C47.2801 162.76 44.5033 106.742 35.5433 107.593C28.99 108.223 31.1004 164.574 25.4727 165.018C19.8819 165.463 16.2535 110.296 8.44135 110.259C-0.185374 110.222 -1.18504 178.162 4.77592 203.857C5.59046 207.375 7.10847 212.521 11.3293 217.038C19.0304 225.257 30.6561 225.961 35.9506 225.887C40.2825 227.701 41.9116 231.589 42.652 237.031C41.3192 238.734 40.6157 240.882 40.8378 243.214L58.6837 432.151C59.165 436.927 63.3858 440.444 68.162 439.963C72.9381 439.519 76.4185 435.261 75.9742 430.485L58.0913 241.548C57.8321 238.66 56.166 236.291 53.8705 234.921C54.3148 228.256 56.0549 225.368 58.2024 223.665L58.2764 223.702Z" fill="#B3DEE5"/>
</svg>
