<svg width="726" height="301" viewBox="0 0 726 301" fill="none" xmlns="http://www.w3.org/2000/svg">
    <path
        d="M336.554 53.2338C336.554 26.7472 323.169 13.0538 297.298 13.0538C276 13.0538 256.526 28.8794 240.084 48.9695C240.084 27.6712 228.523 10.0213 208.741 10.0213C183.486 10.0213 165.22 30.7273 140.582 62.0469L157.616 9.71335C158.539 6.6809 157.308 1.18457 151.527 1.18457C150.319 1.18457 149.087 1.49255 147.879 2.41651C143.614 5.44896 138.141 9.12108 132.669 13.0775C107.106 31.6513 75.1469 54.4658 47.1441 54.4658C27.054 54.4658 14.2846 43.2125 14.2846 20.3743C14.2846 16.7259 11.8444 13.3855 7.88797 13.3855C4.85551 13.3855 1.79936 15.8257 1.49138 18.8581C-1.54108 48.3772 18.8332 67.259 47.1441 67.259C82.7517 67.259 114.095 42.5966 139.35 24.3544L115.611 96.778C114.995 98.01 88.8404 138.782 86.9925 141.199C60.2215 176.19 44.0879 202.677 43.7799 219.711C43.7799 230.372 48.6603 238.877 59.9136 238.877C80.0036 238.877 88.2244 222.435 104.334 172.542L127.149 102.535C150.271 69.0595 182.847 22.7908 208.101 22.7908C221.795 22.7908 227.267 35.276 227.267 50.7937C227.267 58.0905 225.751 66.9273 222.695 77.2803C208.693 124.449 190.736 178.915 173.394 227.624C172.186 231.58 174.602 236.153 179.482 236.153C182.231 236.153 184.647 234.636 185.571 231.888C213.266 152.452 216.914 140.891 237.004 73.9398C251.622 51.1253 275.052 24.9467 297.251 24.9467C315.209 24.9467 324.638 33.1675 324.638 53.2575C324.638 73.3476 315.517 96.778 303.031 131.177C289.954 167.401 261.335 243.781 261.335 265.695C261.335 284.861 273.82 298.863 294.811 298.863C298.151 298.863 300.899 296.115 300.899 292.774C300.899 289.434 298.151 286.994 294.811 286.994C282.941 286.994 273.512 279.389 273.512 265.695C273.512 246.837 301.207 171.05 314.285 135.442C327.054 100.142 337.099 75.1955 336.507 53.2812L336.554 53.2338ZM92.1808 168.562C78.7953 210.258 72.3988 225.776 59.9136 225.776C57.7814 225.776 56.5731 223.952 56.5731 220.896C56.8811 202.63 69.9586 189.86 97.6534 148.472C98.6643 147.05 99.375 145.937 99.7856 145.131L92.1808 168.562Z"
        fill="#0C0600" />
    <path
        d="M294.858 300C274.129 300 260.198 286.188 260.198 265.648C260.198 245.108 283.794 180.692 297.891 141.933C299.359 137.906 300.734 134.139 301.966 130.727C303.269 127.15 304.524 123.691 305.756 120.351C316.062 92.182 323.501 71.8076 323.501 53.2338C323.501 34.66 315.422 26.1076 297.298 26.1076C271.191 26.1076 245.533 62.8998 238.118 74.4137C218.265 140.583 214.64 152.168 186.708 232.244C185.666 235.347 182.918 237.313 179.506 237.313C176.995 237.313 174.839 236.271 173.441 234.352C171.973 232.362 171.546 229.709 172.281 227.245C190.144 177.091 208.101 122.317 221.582 76.9249C224.567 66.7377 226.107 57.9484 226.107 50.7937C226.107 42.7387 224.354 23.9754 208.125 23.9754C182.942 23.9754 148.732 73.4186 128.239 103.056L105.472 172.897C88.9117 224.118 80.4777 240.062 59.9139 240.062C49.0633 240.062 42.5957 232.457 42.5957 219.711C42.88 203.814 56.2891 179.365 86.0451 140.464C87.4666 138.545 113.574 98.01 114.545 96.2094L137.076 27.4343L134.943 28.9742C110.802 46.553 80.762 68.4198 47.1207 68.4198C32.1005 68.4198 19.0941 63.2078 10.5417 53.7077C2.41562 44.705 -1.11435 32.5989 0.307116 18.7159C0.662482 15.1623 4.12138 12.1772 7.86457 12.1772C12.1763 12.1772 15.4457 15.7072 15.4457 20.3506C15.4457 41.5541 26.699 53.2575 47.1207 53.2575C75.2657 53.2575 108.03 29.4717 131.935 12.1061C135.038 9.85549 138.165 7.6996 141.056 5.70955C143.259 4.19332 145.32 2.74816 147.168 1.44516C148.447 0.473821 149.869 0 151.504 0C154.749 0 156.55 1.51623 157.497 2.77186C159.179 5.02251 159.322 8.05496 158.729 10.045L143.733 56.1241C166.618 27.3632 184.292 8.83677 208.717 8.83677C227.007 8.83677 240.013 23.8806 241.174 45.7948C260.222 23.2883 279.08 11.8692 297.275 11.8692C323.738 11.8692 337.715 26.1549 337.715 53.2101C338.26 73.1817 330.229 95.2144 319.118 125.681C317.933 128.95 316.701 132.315 315.446 135.797C304.311 166.098 274.744 246.553 274.744 265.648C274.744 277.873 282.634 285.785 294.858 285.785C298.933 285.785 302.131 288.842 302.131 292.751C302.131 296.66 298.862 300.024 294.858 300.024V300ZM297.298 23.7385C316.796 23.7385 325.87 33.1201 325.87 53.2338C325.87 72.2578 318.36 92.7742 307.983 121.18C306.751 124.52 305.495 127.979 304.192 131.557C302.961 134.968 301.586 138.711 300.118 142.762C286.069 181.379 262.567 246.032 262.567 265.672C262.567 285.312 275.242 297.655 294.858 297.655C297.559 297.655 299.762 295.451 299.762 292.751C299.762 290.05 297.654 288.154 294.858 288.154C281.402 288.154 272.375 279.104 272.375 265.648C272.375 248.353 294.219 186.733 313.219 134.992C314.474 131.533 315.706 128.169 316.891 124.876C327.931 94.6458 335.891 72.8027 335.346 53.2575C335.346 27.3632 322.529 14.2383 297.275 14.2383C279.175 14.2383 260.246 26.1786 240.985 49.7039L238.876 52.2625V48.9458C238.876 26.6998 226.462 11.1822 208.717 11.1822C183.913 11.1822 165.979 31.6039 141.482 62.7576L137.36 67.9934L156.455 9.31059C156.858 7.9602 156.763 5.75693 155.578 4.16963C154.678 2.96138 153.304 2.34542 151.48 2.34542C150.366 2.34542 149.442 2.6534 148.542 3.34044C146.671 4.69083 144.586 6.1123 142.382 7.65222C139.516 9.64227 136.412 11.7745 133.309 14.0251C109.12 31.5802 76.0001 55.6266 47.097 55.6266C25.467 55.6266 13.0529 42.7624 13.0529 20.3506C13.0529 17.4603 11.2761 14.5463 7.84088 14.5463C5.30593 14.5463 2.86575 16.6074 2.62884 18.9529C1.27845 32.1488 4.61889 43.6153 12.2948 52.1204C20.3971 61.0993 32.7639 66.0507 47.1207 66.0507C79.9802 66.0507 109.689 44.4208 133.546 27.0552L141.601 21.2272L116.725 97.1097C115.872 98.8628 89.5514 139.73 87.9404 141.886C58.4924 180.36 45.2254 204.383 44.9648 219.711C44.9648 225.089 46.4099 237.669 59.9139 237.669C78.9852 237.669 87.0638 222.104 103.221 172.139L126.201 101.824C148.282 69.865 181.639 21.5826 208.125 21.5826C221.061 21.5826 228.476 32.2199 228.476 50.77C228.476 58.1616 226.936 67.1642 223.856 77.5883C210.376 123.028 192.394 177.849 174.531 228.003C174.01 229.685 174.318 231.557 175.337 232.954C176.284 234.234 177.777 234.944 179.506 234.944C181.852 234.944 183.747 233.618 184.458 231.485C212.39 151.386 215.991 139.825 235.867 73.5845L236.01 73.2765C243.449 61.6442 269.84 23.7385 297.251 23.7385H297.298ZM59.9139 226.96C57.7106 226.96 55.3889 225.373 55.3889 220.896C55.6258 206.776 63.3491 195.759 78.7719 173.798C83.9603 166.406 89.8357 158.043 96.6824 147.785C97.6774 146.395 98.3645 145.321 98.7435 144.563L100.923 145.463L93.3183 168.894C79.7907 211.016 73.3941 226.937 59.9375 226.937L59.9139 226.96ZM95.9243 153.139C90.2147 161.597 85.1922 168.751 80.6909 175.172C65.0785 197.394 57.9712 207.557 57.7343 220.919C57.7343 222.27 58.0186 224.591 59.8902 224.591C71.7357 224.591 78.156 208.268 91.0202 168.183L95.9006 153.139H95.9243Z"
        fill="#0C0600" />
    <path
        d="M373.986 78.4887C379.767 78.4887 384.339 73.9163 384.339 68.1357C384.339 62.3551 379.767 57.7827 373.986 57.7827C368.206 57.7827 363.325 62.3551 363.325 68.1357C363.325 73.9163 368.206 78.4887 373.986 78.4887Z"
        fill="#0C0600" />
    <path
        d="M373.986 79.6732C367.471 79.6732 362.141 74.4849 362.141 68.1357C362.141 61.7865 367.447 56.5981 373.986 56.5981C380.525 56.5981 385.524 61.668 385.524 68.1357C385.524 74.6034 380.454 79.6732 373.986 79.6732ZM373.986 58.9673C368.774 58.9673 364.51 63.0658 364.51 68.1357C364.51 73.2056 368.75 77.3041 373.986 77.3041C379.222 77.3041 383.155 73.2767 383.155 68.1357C383.155 62.9947 379.127 58.9673 373.986 58.9673Z"
        fill="#0C0600" />
    <path
        d="M699.905 123.525C709.334 112.864 716.939 99.4784 716.939 87.3012C716.323 78.4881 711.158 71.4756 702.321 71.4756C689.836 71.4756 680.099 84.861 680.099 100.687C680.099 107.676 681.923 114.38 684.671 120.753C681.023 124.401 677.967 127.766 674.318 132.006C673.418 133.238 672.802 134.754 672.802 135.963C672.802 137.787 673.418 139.919 674.934 141.127C676.143 142.359 677.967 142.644 679.507 142.644C681.331 142.644 683.155 141.743 684.387 140.203C686.211 137.763 688.344 135.347 690.476 133.215C706.609 161.525 711.158 170.338 711.466 183.724C710.85 208.979 693.2 225.112 668.562 225.112C650.912 225.112 635.394 212.035 635.394 193.461C636.602 174.911 647.571 160.909 664.297 160.909C672.21 160.909 679.815 168.514 680.431 178.867C680.431 182.516 683.179 185.264 686.827 185.264C690.476 185.264 693.224 182.516 693.224 178.867C692.608 162.118 679.838 148.14 664.013 148.14C645.273 148.14 631.982 158.801 626.012 176.166C610.424 209.974 599.17 225.136 585.501 225.136C579.104 225.136 576.38 221.179 576.38 212.343C576.38 204.122 583.368 179.483 594.953 148.14C599.526 135.963 605.306 119.521 611.987 101.871C613.504 97.9148 610.471 93.3424 605.591 93.3424C603.15 93.3424 600.71 94.8587 599.81 97.2989C583.984 140.511 572.731 172.779 562.07 194.077C552.025 214.783 539.54 225.112 527.078 225.112C516.11 225.112 510.329 218.716 510.329 206.254C510.329 199.218 511.466 194.101 518.597 174.555C518.692 174.366 518.763 174.176 518.858 173.987C518.952 173.703 519.047 173.395 519.118 173.11C524.378 158.753 532.741 136.958 545.937 101.871C547.453 97.9148 545.013 93.3424 539.848 93.3424C537.408 93.3424 534.968 94.8587 534.067 97.2989C520.753 131.817 512.011 154.323 506.396 170.054C488.178 209.31 477.304 225.112 463.16 225.112C456.763 225.112 454.039 221.156 454.039 212.319C454.039 188.889 477.777 149.016 477.777 121.938C477.777 105.804 471.073 93.3188 449.159 93.3188C439.114 93.3188 429.684 99.0994 420.848 108.244L423.288 102.156C424.804 98.1991 421.772 93.6267 417.199 93.6267C414.451 93.6267 412.035 95.143 411.111 97.8911C404.477 116.11 395.546 141.364 386.211 167.732C385.974 168.064 385.738 168.419 385.548 168.775C374.295 193.722 360.293 225.088 341.412 225.088C335.015 225.088 332.29 221.132 332.29 212.295C332.29 199.218 337.763 185.216 367.282 102.132C369.106 96.9672 365.15 93.911 361.194 93.911C358.753 93.911 356.313 95.4273 355.413 98.1754C342.028 132.883 320.421 188.557 319.497 212.295C318.881 226.297 326.794 237.858 341.412 237.858C350.225 237.858 357.877 234.162 364.724 228.002C364.558 228.453 364.392 228.903 364.25 229.353C363.042 233.001 364.866 236.365 368.206 237.574C371.547 238.498 375.195 236.981 376.427 233.309L397.322 174.176C397.322 174.176 397.394 174.034 397.417 173.963C397.465 173.821 397.512 173.679 397.559 173.537L397.725 173.063C407.462 147.192 430.585 106.112 449.159 106.112C461.028 106.112 464.984 113.101 464.984 121.938C464.984 148.4 441.246 183.724 441.246 212.319C441.246 227.244 448.543 237.882 463.16 237.882C476.261 237.882 486.804 230.656 498.033 213.693C500.26 229.542 510.045 237.882 526.747 237.882H527.055C540.748 237.882 554.75 228.761 563.563 216.275C565.387 229.661 572.092 237.882 585.477 237.882C600 237.882 611.893 228.453 624.662 206.681C630.49 224.804 648.021 237.882 668.538 237.882C699.265 237.882 723.62 216.891 724.236 184.032C723.928 163.326 715.707 152.689 699.881 123.454L699.905 123.525ZM692.916 100.402C692.916 96.138 693.816 90.6654 697.488 86.9932C700.521 83.9608 703.885 83.0368 703.885 87.3012C703.885 94.0058 699.313 103.435 694.456 110.139C693.532 106.799 692.94 103.743 692.94 100.402H692.916Z"
        fill="#0C0600" />
    <path
        d="M668.561 239.137C648.685 239.137 631.272 227.339 624.401 209.524C611.963 229.969 599.881 239.137 585.477 239.137C573.063 239.137 565.458 232.457 562.852 219.284C553.281 231.58 539.753 239.137 527.055 239.137H526.747C510.566 239.137 500.45 231.462 497.37 216.868C486.519 232.457 476.166 239.137 463.136 239.137C448.685 239.137 440.037 229.14 440.037 212.39C440.037 197.607 446.292 181.071 452.333 165.079C458.208 149.49 463.776 134.778 463.776 122.009C463.776 112.295 458.848 107.368 449.135 107.368C431.793 107.368 408.86 146.861 398.815 173.561L377.517 233.783C376.19 237.763 372.044 239.919 367.874 238.782C364.463 237.55 362.544 234.612 362.686 231.343C355.981 236.579 348.993 239.137 341.411 239.137C334.825 239.137 329.163 236.863 325.065 232.575C320.374 227.671 317.981 220.493 318.336 212.343C319.237 188.747 340.014 134.944 353.755 99.3128L354.323 97.8439C355.318 94.8589 358.09 92.8214 361.217 92.8214C363.894 92.8214 366.406 94.0297 367.78 95.9723C368.68 97.2517 369.533 99.4549 368.419 102.63L360.578 124.71C338.166 187.68 333.499 200.782 333.499 212.39C333.499 222.577 337.313 223.999 341.435 223.999C359.393 223.999 373.157 193.485 384.221 168.965L384.482 168.396C384.695 167.97 384.908 167.614 385.169 167.282L387.42 160.91C395.901 136.934 403.932 114.286 410.021 97.5833C411.063 94.4798 413.811 92.5371 417.223 92.5371C419.758 92.5371 422.127 93.7928 423.548 95.8776C424.946 97.915 425.278 100.45 424.401 102.677L424.022 103.648C432.527 95.996 440.795 92.2528 449.158 92.2528C468.917 92.2528 478.962 102.274 478.962 122.056C478.962 136.295 472.565 153.826 466.382 170.789C460.649 186.496 455.223 201.35 455.223 212.438C455.223 222.625 459.038 224.046 463.16 224.046C476 224.046 486.235 210.827 505.33 169.675C510.187 156.053 517.294 137.574 528.073 109.642L532.954 96.9911C533.996 94.2192 536.815 92.2765 539.848 92.2765C542.596 92.2765 544.894 93.4137 546.292 95.4511C547.666 97.4412 547.95 100.047 547.026 102.416C541.625 116.82 537.005 128.974 533.096 139.303C527.41 154.323 523.312 165.174 520.208 173.632C520.113 173.987 520.042 174.224 519.947 174.485L519.639 175.172C512.556 194.575 511.49 199.502 511.49 206.373C511.49 218.1 516.725 224.046 527.055 224.046C539.421 224.046 551.48 213.267 560.98 193.674C570.054 175.527 579.744 148.898 592.039 115.209C594.171 109.381 596.375 103.317 598.673 97.0148C599.715 94.2192 602.558 92.2765 605.567 92.2765C608.315 92.2765 610.732 93.5322 612.224 95.6881C613.598 97.7018 613.906 100.213 613.077 102.393C609.168 112.698 605.543 122.696 602.321 131.509C600.023 137.811 597.915 143.591 596.019 148.661C584.79 179.104 577.54 204.146 577.54 212.438C577.54 222.625 581.355 224.046 585.477 224.046C597.82 224.046 608.884 210.519 624.899 175.764C631.153 157.569 645.415 147.05 663.989 147.05C680.123 147.05 693.745 161.336 694.385 178.915C694.385 183.274 691.139 186.543 686.804 186.543C682.468 186.543 679.222 183.274 679.222 178.962C678.678 169.746 671.973 162.189 664.273 162.189C648.922 162.189 637.787 174.816 636.531 193.651C636.531 210.661 650.58 224.046 668.514 224.046C692.892 224.046 709.665 207.889 710.234 183.819C709.926 170.789 705.14 161.597 690.168 135.276C688.415 137.124 686.733 139.09 685.287 141.033C683.819 142.857 681.663 143.947 679.459 143.947C677.114 143.947 675.29 143.331 674.058 142.075C672.542 140.867 671.57 138.593 671.57 136.058C671.57 134.612 672.234 132.859 673.323 131.39C677.09 127.008 679.981 123.833 683.226 120.564C680.289 113.551 678.867 107.06 678.867 100.758C678.867 83.9847 689.362 70.3623 702.274 70.3623C711.158 70.3623 717.365 76.9958 718.076 87.2777C718.076 98.2467 711.964 111.466 701.279 123.738C703.79 128.382 706.112 132.528 708.244 136.342C719.118 155.863 725.112 166.619 725.373 184.127C724.78 216.56 701.374 239.185 668.49 239.185L668.561 239.137ZM624.994 203.885L625.799 206.396C631.651 224.567 648.827 236.768 668.561 236.768C700.071 236.768 722.506 215.091 723.075 184.079C722.814 167.211 717.27 157.261 706.23 137.455C704.003 133.452 701.539 129.045 698.862 124.094L698.46 123.359L699.004 122.743C709.642 110.732 715.754 97.8202 715.754 87.3014C715.138 78.441 709.879 72.6603 702.321 72.6603C690.713 72.6603 681.284 85.2403 681.284 100.687C681.284 106.87 682.752 113.291 685.761 120.303L686.069 121.037L685.501 121.606C682.065 125.041 679.104 128.263 675.219 132.788C674.484 133.783 673.987 135.039 673.987 135.987C673.987 137.384 674.437 139.232 675.669 140.227C676.735 141.27 678.322 141.483 679.483 141.483C680.952 141.483 682.444 140.748 683.416 139.493C685.216 137.1 687.348 134.636 689.599 132.409L690.689 131.319L691.447 132.67C707.273 160.436 712.295 169.865 712.603 183.748C711.987 209.239 694.266 226.344 668.514 226.344C649.253 226.344 634.162 211.916 634.162 193.508C635.489 173.3 647.571 159.772 664.25 159.772C673.181 159.772 680.952 168.325 681.568 178.844C681.568 181.924 683.747 184.127 686.78 184.127C689.812 184.127 691.992 181.947 691.992 178.915C691.4 162.639 678.82 149.372 663.965 149.372C646.221 149.372 633.12 159.038 627.078 176.593C610.353 212.911 599.076 226.368 585.453 226.368C576.214 226.368 575.148 218.384 575.148 212.39C575.148 203.814 582.468 178.465 593.792 147.785C595.688 142.739 597.796 136.958 600.071 130.656C603.269 121.843 606.917 111.845 610.826 101.516C611.395 100.024 611.182 98.3651 610.234 96.9911C609.192 95.4748 607.486 94.5983 605.543 94.5983C603.506 94.5983 601.587 95.9013 600.876 97.7966C598.578 104.075 596.351 110.14 594.243 115.991C581.947 149.751 572.234 176.427 563.089 194.693C553.186 215.138 540.369 226.392 527.031 226.392C515.304 226.392 509.097 219.45 509.097 206.349C509.097 199.147 510.187 194.077 517.436 174.248L517.72 173.584C517.72 173.584 517.815 173.253 517.886 173.039L517.957 172.779C521.061 164.297 525.183 153.447 530.845 138.427C534.754 128.097 539.35 115.92 544.776 101.516C545.415 99.8814 545.226 98.1045 544.302 96.7305C543.354 95.3564 541.743 94.5746 539.801 94.5746C537.763 94.5746 535.844 95.8776 535.133 97.7729L530.253 110.424C519.474 138.356 512.366 156.787 507.486 170.504C490.286 207.581 478.725 226.344 463.112 226.344C453.873 226.344 452.807 218.36 452.807 212.367C452.807 200.876 458.303 185.833 464.107 169.912C470.22 153.139 476.545 135.821 476.545 121.985C476.545 103.53 467.566 94.5509 449.111 94.5509C440.108 94.5509 431.13 99.3128 421.653 109.097L417.46 113.433L422.127 101.753C422.696 100.26 422.482 98.5547 421.511 97.1569C420.516 95.6881 418.905 94.8589 417.128 94.8589C414.783 94.8589 412.887 96.1856 412.177 98.3178C406.088 115.044 398.057 137.669 389.575 161.644L387.088 168.491C386.875 168.775 386.685 169.059 386.543 169.367L386.306 169.888C374.958 195.025 360.838 226.321 341.364 226.321C332.125 226.321 331.058 218.337 331.058 212.343C331.058 200.308 335.749 187.136 358.279 123.857L366.121 101.777C366.737 100.024 366.619 98.4836 365.766 97.2754C364.842 95.9487 363.065 95.1432 361.146 95.1432C359.393 95.1432 357.284 96.2093 356.479 98.5784L355.887 100.118C342.193 135.584 321.511 189.173 320.634 212.39C320.303 219.877 322.459 226.439 326.723 230.893C330.371 234.707 335.441 236.745 341.364 236.745C349.395 236.745 356.74 233.617 363.871 227.197L367.377 224.023L365.292 229.827C364.321 232.717 365.647 235.489 368.538 236.531C371.002 237.195 374.153 236.223 375.219 233.001L396.517 172.731C404.832 150.604 428.618 104.999 449.064 104.999C460.198 104.999 466.074 110.874 466.074 122.009C466.074 135.205 460.435 150.106 454.465 165.908C448.495 181.71 442.335 198.033 442.335 212.39C442.335 227.647 450.082 236.768 463.065 236.768C476.048 236.768 485.998 229.685 496.967 213.125L498.696 210.519L499.123 213.622C501.279 228.998 510.542 236.792 526.676 236.792H526.984C539.516 236.792 553.47 228.5 562.544 215.683L564.273 213.219L564.676 216.205C566.571 230.04 573.347 236.792 585.406 236.792C599.573 236.792 610.992 227.647 623.572 206.183L624.899 203.909L624.994 203.885ZM693.935 112.84L693.295 110.471C692.513 107.628 691.731 104.241 691.731 100.426C691.731 96.1856 692.584 90.2628 696.635 86.1879C699.076 83.7714 701.421 82.7764 703.103 83.4872C703.98 83.8662 705.046 84.8139 705.046 87.3488C705.046 94.9062 699.834 104.738 695.38 110.874L693.935 112.864V112.84ZM701.942 85.6193C701.303 85.6193 700 86.1642 698.294 87.87C694.811 91.3526 694.077 96.6357 694.077 100.426C694.077 102.606 694.337 104.738 694.93 107.344C698.981 101.208 702.677 93.1768 702.677 87.3251C702.677 86.2353 702.416 85.7378 702.203 85.6667C702.132 85.643 702.061 85.6193 701.942 85.6193Z"
        fill="#0C0600" />
</svg>