<?xml version="1.0" encoding="UTF-8"?>
<svg id="_Слой_1" data-name="Слой 1" xmlns="http://www.w3.org/2000/svg" xmlns:xlink="http://www.w3.org/1999/xlink" viewBox="0 0 312.91 32">
  <defs>
    <style>
      .cls-1 {
        fill: #fff;
      }

      .cls-2 {
        fill: #ea4335;
      }

      .cls-2, .cls-3, .cls-4, .cls-5, .cls-6, .cls-7, .cls-8, .cls-9, .cls-10, .cls-11, .cls-12 {
        fill-rule: evenodd;
      }

      .cls-13 {
        fill: #b3dee5;
        stroke: #b3dee5;
      }

      .cls-14 {
        fill: #f79e1b;
      }

      .cls-3 {
        fill: #22284f;
      }

      .cls-4 {
        fill: #fbbc04;
      }

      .cls-5 {
        fill: #231f20;
      }

      .cls-6 {
        fill: #31525b;
      }

      .cls-15 {
        fill: #ff5f00;
      }

      .cls-16 {
        fill: #eb001b;
      }

      .cls-7 {
        fill: #4285f4;
      }

      .cls-17 {
        fill: url(#_Безымянный_градиент_3);
      }

      .cls-18, .cls-10 {
        fill: #15195a;
      }

      .cls-8 {
        fill: #28356a;
      }

      .cls-9 {
        fill: #298fc2;
      }

      .cls-11 {
        fill: #34a853;
      }
    </style>
    <linearGradient id="_Безымянный_градиент_3" data-name="Безымянный градиент 3" x1="27.43" y1="761.58" x2="16.46" y2="727.94" gradientTransform="translate(0 763) scale(1 -1)" gradientUnits="userSpaceOnUse">
      <stop offset="0" stop-color="#222e72"/>
      <stop offset=".59" stop-color="#40cbff"/>
      <stop offset="1" stop-color="#3cb792"/>
    </linearGradient>
  </defs>
  <g>
    <rect class="cls-13" x="106.82" y=".5" width="45.34" height="31" rx="1" ry="1"/>
    <g>
      <path class="cls-5" d="m123.19,24.74v2.36h-.52v-.29c-.16.21-.41.35-.75.35-.67,0-1.19-.52-1.19-1.24s.52-1.24,1.19-1.24c.34,0,.59.13.75.35v-.29h.52Zm-1.21.42c-.45,0-.72.34-.72.76s.27.76.72.76.72-.33.72-.76-.29-.76-.72-.76Zm18.68.76c0-.42.27-.76.72-.76s.72.33.72.76-.29.76-.72.76-.72-.34-.72-.76Zm1.93-2.13v3.31h-.52v-.29c-.16.21-.41.35-.75.35-.67,0-1.19-.52-1.19-1.24s.52-1.24,1.19-1.24c.34,0,.59.13.75.35v-1.24h.52Zm-12.98,1.35c.33,0,.55.21.6.57h-1.24c.06-.34.26-.57.63-.57Zm-1.18.78c0-.74.49-1.24,1.18-1.24s1.12.5,1.13,1.24c0,.07,0,.13-.01.2h-1.77c.07.43.38.58.71.58.24,0,.49-.09.69-.25l.25.38c-.29.24-.62.33-.97.33-.71,0-1.22-.49-1.22-1.24Zm7.43,0c0-.42.27-.76.72-.76s.72.33.72.76-.29.76-.72.76-.72-.34-.72-.76Zm1.93-1.18v2.36h-.52v-.29c-.16.21-.41.35-.75.35-.67,0-1.19-.52-1.19-1.24s.52-1.24,1.19-1.24c.34,0,.59.13.75.35v-.29h.52Zm-4.85,1.18c0,.72.5,1.24,1.27,1.24.36,0,.6-.08.86-.28l-.25-.42c-.19.14-.4.21-.62.21-.41,0-.72-.3-.72-.76s.3-.75.72-.76c.22,0,.43.07.62.21l.25-.42c-.26-.2-.5-.28-.86-.28-.77,0-1.27.52-1.27,1.24Zm6.04-.89c.13-.21.33-.35.63-.35.1,0,.25.02.37.06l-.16.48c-.11-.04-.22-.06-.32-.06-.34,0-.51.22-.51.61v1.32h-.52v-2.36h.51v.29Zm-13.24-.1c-.25-.16-.59-.25-.97-.25-.6,0-.99.29-.99.76,0,.39.29.62.82.7l.24.03c.28.04.42.11.42.25,0,.18-.19.29-.54.29s-.62-.11-.79-.25l-.24.4c.28.21.64.31,1.03.31.69,0,1.08-.32,1.08-.77,0-.42-.31-.63-.83-.71l-.24-.04c-.22-.03-.4-.07-.4-.23,0-.17.17-.28.45-.28.3,0,.6.11.74.2l.22-.42Zm6.05.1c.13-.21.33-.35.63-.35.11,0,.25.02.37.06l-.16.48c-.11-.04-.22-.06-.32-.06-.34,0-.51.22-.51.61v1.32h-.52v-2.36h.51v.29Zm-3.79-.29h-.85v-.72h-.52v.72h-.48v.47h.48v1.08c0,.55.21.87.83.87.23,0,.48-.07.65-.18l-.15-.44c-.15.09-.32.13-.46.13-.26,0-.34-.16-.34-.4v-1.07h.85v-.47Zm-7.73.88v1.48h-.52v-1.32c0-.4-.17-.62-.52-.62s-.58.22-.58.63v1.31h-.52v-1.32c0-.4-.17-.62-.52-.62s-.58.22-.58.63v1.31h-.52v-2.36h.52v.29c.19-.28.44-.35.7-.35.36,0,.62.16.79.42.22-.33.53-.43.84-.42.58,0,.93.38.93.94Z"/>
      <path class="cls-15" d="m133.41,20.73h-7.84V6.73h7.84v13.99Z"/>
      <path class="cls-16" d="m126.07,13.73c0-2.84,1.34-5.37,3.42-7-1.52-1.19-3.45-1.9-5.54-1.9-4.95,0-8.96,3.98-8.96,8.9s4.01,8.9,8.96,8.9c2.09,0,4.01-.71,5.54-1.9-2.08-1.63-3.42-4.16-3.42-7Z"/>
      <path class="cls-14" d="m143.99,13.73c0,4.92-4.01,8.9-8.96,8.9-2.09,0-4.01-.71-5.54-1.9,2.08-1.63,3.42-4.16,3.42-7s-1.34-5.37-3.42-7c1.52-1.19,3.45-1.9,5.54-1.9,4.95,0,8.96,3.98,8.96,8.9Z"/>
    </g>
  </g>
  <g>
    <rect class="cls-13" x="53.41" y=".5" width="45.34" height="31" rx="1" ry="1"/>
    <g>
      <path class="cls-18" d="m72.55,21.62h-3.09l1.93-11.2h3.09l-1.93,11.2Z"/>
      <path class="cls-18" d="m83.73,10.69c-.61-.23-1.57-.48-2.77-.48-3.05,0-5.19,1.53-5.21,3.71-.03,1.61,1.54,2.5,2.7,3.04,1.19.55,1.6.91,1.6,1.39-.01.75-.96,1.1-1.85,1.1-1.23,0-1.89-.18-2.89-.6l-.41-.18-.43,2.51c.72.31,2.06.58,3.44.6,3.24,0,5.35-1.5,5.37-3.83.01-1.28-.81-2.25-2.59-3.05-1.08-.51-1.74-.86-1.74-1.38.01-.48.56-.97,1.78-.97,1-.02,1.74.2,2.3.43l.28.12.42-2.42Z"/>
      <path class="cls-10" d="m89.25,10.42h2.39l2.49,11.2h-2.86s-.28-1.29-.37-1.68h-3.96c-.11.3-.65,1.68-.65,1.68h-3.24l4.58-10.27c.32-.73.88-.93,1.61-.93Zm-.19,4.1s-.98,2.49-1.23,3.13h2.56c-.13-.56-.71-3.24-.71-3.24l-.22-.97c-.09.25-.22.59-.31.82-.06.16-.1.26-.1.25Z"/>
      <path class="cls-10" d="m56.09,10.42h4.96c.67.02,1.22.23,1.4.94l1.08,5.15s0,0,0,0c0,0,0,0,0,0l.33,1.55,3.02-7.64h3.26l-4.85,11.19h-3.26l-2.75-9.73c-.95-.52-2.03-.94-3.24-1.23l.05-.23Z"/>
    </g>
  </g>
  <g>
    <path class="cls-17" d="m0,1.23c0-.4.33-.73.73-.73h43.88c.41,0,.73.33.73.73v29.55c0,.4-.33.73-.73.73H.73c-.41,0-.73-.33-.73-.73V1.23Z"/>
    <path class="cls-1" d="m16.94,15.53h6.28c-.06-1.36-.37-2.76-1.33-3.66-1.14-1.07-3.14-1.47-4.93-1.47s-3.92.44-5.06,1.59c-.99.99-1.2,2.58-1.2,4.01s.42,3.24,1.49,4.25c1.14,1.07,2.99,1.35,4.78,1.35s3.61-.32,4.75-1.34c1.13-1.01,1.52-2.72,1.52-4.27h0s-6.28,0-6.28,0v-.47Z"/>
    <path class="cls-1" d="m23.64,15.99v5.36h8.73c1.28-.08,2.29-1.23,2.29-2.65s-1.02-2.64-2.29-2.71h0s-8.73,0-8.73,0Z"/>
    <path class="cls-1" d="m32.27,10.62c1.24,0,2.23,1.08,2.23,2.45,0,1.29-.91,2.35-2.06,2.46h-8.8v-4.91h8.35c.05,0,.11,0,.17,0,.04,0,.07,0,.11,0Z"/>
  </g>
  <g>
    <rect class="cls-13" x="267.06" y=".5" width="45.34" height="31" rx="1" ry="1"/>
    <g>
      <path class="cls-8" d="m287.53,15.77l.2-1.29h-.45s-2.15-.01-2.15-.01l1.49-9.5s.02-.06.04-.07c.02-.02.05-.03.08-.03h3.62c1.2,0,2.03.25,2.46.75.2.23.33.48.39.74.07.28.07.62,0,1.02v.03s0,.26,0,.26l.2.12c.17.09.31.2.41.31.17.2.29.45.33.75.05.31.03.67-.05,1.09-.09.48-.24.89-.44,1.23-.19.31-.42.57-.7.77-.27.19-.59.34-.95.43-.35.09-.75.14-1.18.14h-.28c-.2,0-.4.07-.55.2-.15.13-.26.32-.29.51l-.02.12-.36,2.27-.02.08s-.01.04-.02.05c0,0-.02.01-.04.01h-1.74Z"/>
      <path class="cls-9" d="m293.62,7.45c-.01.07-.02.14-.04.21-.48,2.46-2.11,3.31-4.2,3.31h-1.06c-.26,0-.47.19-.51.44l-.7,4.44c-.03.17.1.32.27.32h1.88c.22,0,.41-.16.45-.38l.02-.1.35-2.26.02-.12c.04-.22.22-.38.45-.38h.28c1.82,0,3.25-.74,3.67-2.9.17-.9.08-1.65-.38-2.18-.14-.16-.31-.29-.51-.4Z"/>
      <path class="cls-3" d="m293.12,7.25c-.07-.02-.15-.04-.23-.06-.08-.02-.16-.03-.24-.05-.29-.05-.6-.07-.94-.07h-2.84c-.07,0-.14.02-.2.04-.13.06-.23.19-.25.34l-.6,3.84-.02.11c.04-.25.25-.44.51-.44h1.06c2.09,0,3.72-.85,4.2-3.31.01-.07.03-.14.04-.21-.12-.06-.25-.12-.39-.17-.04-.01-.07-.02-.11-.03Z"/>
      <path class="cls-8" d="m288.43,7.46c.02-.15.12-.28.25-.34.06-.03.13-.04.2-.04h2.84c.34,0,.65.02.94.07.08.01.16.03.24.05.08.02.15.04.23.06.04.01.07.02.11.03.14.05.27.1.39.17.14-.91,0-1.53-.49-2.09-.54-.62-1.51-.88-2.76-.88h-3.62c-.25,0-.47.19-.51.44l-1.51,9.59c-.03.19.12.36.31.36h2.23l1.16-7.41Z"/>
      <path class="cls-8" d="m276.86,18.39h-2.64c-.18,0-.33.13-.36.31l-1.07,6.79c-.02.13.08.25.22.25h1.26c.18,0,.33-.13.36-.31l.29-1.83c.03-.18.18-.31.36-.31h.84c1.74,0,2.74-.84,3-2.52.12-.73,0-1.31-.34-1.71-.38-.44-1.04-.68-1.92-.68Zm.3,2.48c-.14.95-.87.95-1.57.95h-.4l.28-1.78c.02-.11.11-.19.22-.19h.18c.48,0,.93,0,1.16.27.14.16.18.4.13.74Z"/>
      <path class="cls-8" d="m284.82,20.79h-1.26c-.11,0-.2.08-.22.19l-.06.35-.09-.13c-.27-.4-.88-.53-1.49-.53-1.4,0-2.59,1.06-2.82,2.55-.12.74.05,1.45.47,1.95.39.46.94.65,1.59.65,1.12,0,1.75-.73,1.75-.73l-.06.35c-.02.13.08.26.22.26h1.14c.18,0,.33-.13.36-.31l.68-4.34c.02-.13-.08-.25-.22-.25Zm-1.76,2.47c-.12.72-.7,1.21-1.43,1.21-.37,0-.66-.12-.85-.34-.19-.22-.26-.54-.2-.89.11-.72.7-1.22,1.42-1.22.36,0,.65.12.84.35.19.23.27.55.21.9Z"/>
      <path class="cls-8" d="m291.45,20.89h-1.27c-.12,0-.24.06-.3.16l-1.75,2.59-.74-2.49c-.05-.16-.19-.26-.35-.26h-1.25c-.15,0-.26.15-.21.29l1.4,4.12-1.31,1.86c-.1.15,0,.35.18.35h1.27c.12,0,.23-.06.3-.16l4.22-6.12c.1-.15,0-.35-.18-.35Z"/>
      <path class="cls-9" d="m295.68,18.39h-2.64c-.18,0-.33.13-.36.31l-1.07,6.79c-.02.13.08.25.22.25h1.36c.12,0,.23-.09.25-.22l.3-1.93c.03-.18.18-.31.36-.31h.84c1.74,0,2.74-.84,3-2.52.12-.73,0-1.31-.34-1.71-.38-.44-1.04-.68-1.92-.68Zm.3,2.48c-.14.95-.87.95-1.57.95h-.4l.28-1.78c.02-.11.11-.19.22-.19h.18c.48,0,.93,0,1.16.27.14.16.18.4.13.74Z"/>
      <path class="cls-9" d="m303.64,20.79h-1.26c-.11,0-.2.08-.22.19l-.06.35-.09-.13c-.27-.4-.88-.53-1.49-.53-1.4,0-2.59,1.06-2.82,2.55-.12.74.05,1.45.47,1.95.39.46.94.65,1.59.65,1.12,0,1.75-.73,1.75-.73l-.06.35c-.02.13.08.26.22.26h1.14c.18,0,.33-.13.36-.31l.68-4.34c.02-.13-.08-.25-.22-.25Zm-1.76,2.47c-.12.72-.69,1.21-1.42,1.21-.37,0-.66-.12-.85-.34-.19-.22-.26-.54-.2-.89.11-.72.7-1.22,1.42-1.22.36,0,.65.12.84.35.19.23.27.55.21.9Z"/>
      <path class="cls-9" d="m305.02,18.57l-1.08,6.92c-.02.13.08.25.22.25h1.09c.18,0,.33-.13.36-.31l1.07-6.79c.02-.13-.08-.26-.22-.26h-1.22c-.11,0-.2.08-.22.19Z"/>
    </g>
  </g>
  <g>
    <rect class="cls-13" x="213.65" y=".5" width="45.34" height="31" rx="1" ry="1"/>
    <g>
      <path class="cls-6" d="m235.46,19.47v-3.61h1.95c.8,0,1.48-.25,2.03-.76.55-.48.86-1.17.85-1.89.01-.72-.3-1.4-.85-1.88-.54-.51-1.27-.79-2.03-.77h-3.13v8.91h1.18Zm0-4.7v-3.11h1.98c.44-.01.87.16,1.17.47.3.29.47.68.47,1.09s-.17.8-.47,1.09c-.31.31-.73.47-1.17.46h-1.98Z"/>
      <path class="cls-6" d="m245.07,13.85c-.5-.45-1.19-.68-2.07-.68-1.12,0-1.97.4-2.54,1.19l1.04.63c.38-.54.91-.81,1.57-.81.42,0,.83.14,1.14.42.31.25.49.62.49,1.01v.26c-.45-.25-1.03-.37-1.73-.37-.82,0-1.48.19-1.97.56-.49.37-.74.87-.74,1.51-.01.57.25,1.12.7,1.49.47.4,1.05.6,1.74.6.81,0,1.46-.35,1.95-1.05h.05v.85h1.13v-3.76c0-.79-.25-1.41-.76-1.86Zm-3.2,4.5c-.25-.17-.39-.45-.39-.75,0-.33.16-.61.48-.84.32-.22.72-.34,1.2-.34.66,0,1.17.14,1.54.43,0,.48-.2.9-.59,1.26-.35.34-.83.53-1.33.53-.33,0-.66-.1-.92-.3Z"/>
      <path class="cls-6" d="m252.3,13.37l-3.94,8.79h-1.22l1.46-3.07-2.59-5.71h1.28l1.87,4.38h.03l1.82-4.38h1.28Z"/>
      <path class="cls-7" d="m230.69,15.08c0-.35-.03-.7-.09-1.04h-4.98v1.97h2.85c-.12.64-.5,1.2-1.05,1.56v1.28h1.7c1-.89,1.57-2.21,1.57-3.77Z"/>
      <path class="cls-11" d="m225.62,20.08c1.42,0,2.62-.45,3.5-1.24l-1.7-1.28c-.47.31-1.08.49-1.8.49-1.38,0-2.55-.9-2.96-2.11h-1.75v1.32c.9,1.73,2.72,2.82,4.72,2.82Z"/>
      <path class="cls-4" d="m222.66,15.94c-.22-.64-.22-1.32,0-1.96v-1.32h-1.75c-.75,1.45-.75,3.15,0,4.6l1.75-1.32Z"/>
      <path class="cls-2" d="m225.62,11.87c.75-.01,1.48.26,2.02.77l1.51-1.46c-.96-.87-2.22-1.35-3.53-1.33-2,0-3.82,1.09-4.72,2.82l1.75,1.32c.42-1.21,1.59-2.11,2.96-2.11Z"/>
    </g>
  </g>
  <g>
    <rect class="cls-13" x="160.24" y=".5" width="45.34" height="31" rx="1" ry="1"/>
    <path class="cls-12" d="m173.78,11.56c-.34.4-.88.72-1.42.68-.07-.55.2-1.13.51-1.48.34-.42.93-.71,1.4-.73.06.57-.16,1.13-.49,1.54Zm.49.78c-.48-.03-.91.14-1.26.28-.23.09-.42.17-.56.17-.16,0-.36-.08-.58-.17-.29-.12-.63-.25-.98-.25-.8.01-1.55.47-1.96,1.21-.84,1.47-.22,3.64.6,4.83.4.59.88,1.24,1.51,1.22.28-.01.48-.1.68-.18.24-.1.48-.21.87-.21s.61.1.83.2c.22.09.42.18.73.18.65-.01,1.06-.59,1.46-1.18.43-.63.62-1.25.65-1.35h0s0-.01-.02-.02c-.14-.07-1.24-.58-1.25-1.94-.01-1.15.87-1.73,1.01-1.82,0,0,.01,0,.02-.01-.56-.84-1.44-.93-1.74-.96Zm4.51,7.22v-8.87h3.29c1.7,0,2.88,1.18,2.88,2.91s-1.21,2.92-2.93,2.92h-1.88v3.03h-1.36Zm1.36-7.71h1.57c1.18,0,1.85.64,1.85,1.76s-.67,1.76-1.86,1.76h-1.56v-3.52Zm9.3,6.64c-.36.69-1.15,1.13-2.01,1.13-1.26,0-2.15-.76-2.15-1.91s.85-1.79,2.43-1.89l1.7-.1v-.49c0-.72-.47-1.11-1.3-1.11-.69,0-1.19.36-1.29.9h-1.22c.04-1.15,1.11-1.98,2.55-1.98,1.56,0,2.57.82,2.57,2.1v4.41h-1.26v-1.06h-.03Zm-1.64.08c-.72,0-1.19-.35-1.19-.89s.44-.88,1.29-.93l1.51-.1v.5c0,.83-.7,1.42-1.62,1.42Zm7.1,1.33c-.55,1.55-1.17,2.06-2.49,2.06-.1,0-.44-.01-.52-.03v-1.06c.08.01.29.02.4.02.6,0,.94-.26,1.15-.92l.12-.39-2.3-6.46h1.42l1.6,5.24h.03l1.6-5.24h1.38l-2.39,6.78Z"/>
  </g>
</svg>