<svg width="161" height="74" viewBox="0 0 161 74" fill="none" xmlns="http://www.w3.org/2000/svg">
<rect x="114.176" y="0.5" width="45.3448" height="31" rx="3.5" fill="#B3DEE5" stroke="#B3DEE5"/>
<path fill-rule="evenodd" clip-rule="evenodd" d="M130.654 24.7124V25.8939V27.0754H130.137V26.7885C129.973 27.0012 129.724 27.1348 129.385 27.1348C128.718 27.1348 128.195 26.6159 128.195 25.8939C128.195 25.1724 128.718 24.6529 129.385 24.6529C129.724 24.6529 129.973 24.7865 130.137 24.9992V24.7124H130.654ZM129.449 25.1373C129.001 25.1373 128.727 25.4785 128.727 25.8939C128.727 26.3092 129.001 26.6504 129.449 26.6504C129.877 26.6504 130.166 26.3239 130.166 25.8939C130.166 25.4638 129.877 25.1373 129.449 25.1373ZM148.132 25.8939C148.132 25.4785 148.406 25.1373 148.853 25.1373C149.282 25.1373 149.57 25.4638 149.57 25.8939C149.57 26.3239 149.282 26.6504 148.853 26.6504C148.406 26.6504 148.132 26.3092 148.132 25.8939ZM150.058 23.7634V25.8939V27.0754H149.54V26.7885C149.376 27.0012 149.127 27.1348 148.789 27.1348C148.122 27.1348 147.599 26.6159 147.599 25.8939C147.599 25.1724 148.122 24.6529 148.789 24.6529C149.127 24.6529 149.376 24.7865 149.54 24.9992V23.7634H150.058ZM137.074 25.1133C137.407 25.1133 137.621 25.321 137.676 25.6865H136.441C136.497 25.3453 136.705 25.1133 137.074 25.1133ZM135.899 25.8939C135.899 25.1571 136.387 24.6529 137.084 24.6529C137.751 24.6529 138.209 25.1571 138.214 25.8939C138.214 25.9629 138.209 26.0274 138.204 26.0913H136.437C136.512 26.5169 136.815 26.6702 137.149 26.6702C137.387 26.6702 137.641 26.5808 137.841 26.4229L138.094 26.8037C137.805 27.0459 137.477 27.1348 137.119 27.1348C136.407 27.1348 135.899 26.6453 135.899 25.8939ZM143.329 25.8939C143.329 25.4785 143.603 25.1373 144.051 25.1373C144.479 25.1373 144.767 25.4638 144.767 25.8939C144.767 26.3239 144.479 26.6504 144.051 26.6504C143.603 26.6504 143.329 26.3092 143.329 25.8939ZM145.255 24.7124V25.8939V27.0754H144.738V26.7885C144.574 27.0012 144.325 27.1348 143.987 27.1348C143.32 27.1348 142.797 26.6159 142.797 25.8939C142.797 25.1724 143.32 24.6529 143.987 24.6529C144.325 24.6529 144.574 24.7865 144.738 24.9992V24.7124H145.255ZM140.408 25.8939C140.408 26.6108 140.911 27.1348 141.677 27.1348C142.036 27.1348 142.274 27.0555 142.533 26.853L142.284 26.4376C142.09 26.5763 141.886 26.6504 141.662 26.6504C141.249 26.6453 140.945 26.3488 140.945 25.8939C140.945 25.4389 141.249 25.1424 141.662 25.1373C141.886 25.1373 142.09 25.2114 142.284 25.3501L142.533 24.9347C142.274 24.7322 142.036 24.6529 141.677 24.6529C140.911 24.6529 140.408 25.1769 140.408 25.8939ZM146.449 24.9991C146.584 24.7914 146.778 24.6528 147.076 24.6528C147.181 24.6528 147.33 24.6726 147.445 24.7173L147.285 25.2017C147.176 25.157 147.067 25.1423 146.962 25.1423C146.623 25.1423 146.454 25.3595 146.454 25.7505V27.0752H145.937V24.7122H146.449V24.9991ZM133.212 24.9002C132.963 24.7373 132.62 24.6529 132.241 24.6529C131.639 24.6529 131.251 24.9398 131.251 25.4095C131.251 25.7948 131.54 26.0325 132.072 26.1066L132.316 26.1411C132.6 26.1807 132.734 26.2549 132.734 26.3884C132.734 26.5712 132.544 26.6753 132.191 26.6753C131.833 26.6753 131.574 26.5616 131.4 26.428L131.156 26.8281C131.44 27.0357 131.798 27.1348 132.186 27.1348C132.873 27.1348 133.271 26.8134 133.271 26.3635C133.271 25.9482 132.958 25.7309 132.44 25.6568L132.196 25.6217C131.973 25.5923 131.793 25.5481 131.793 25.3897C131.793 25.2165 131.962 25.113 132.246 25.113C132.55 25.113 132.844 25.2267 132.988 25.3156L133.212 24.9002ZM139.259 24.9992C139.393 24.7916 139.587 24.6529 139.885 24.6529C139.99 24.6529 140.139 24.6728 140.254 24.7175L140.094 25.2018C139.985 25.1571 139.876 25.1424 139.771 25.1424C139.432 25.1424 139.263 25.3597 139.263 25.7507V27.0754H138.746V24.7124H139.259V24.9992ZM135.471 24.7124H134.625V23.9954H134.102V24.7124H133.62V25.182H134.102V26.26C134.102 26.8083 134.317 27.1348 134.928 27.1348C135.153 27.1348 135.411 27.0657 135.575 26.952L135.426 26.5118C135.272 26.6006 135.103 26.6453 134.968 26.6453C134.71 26.6453 134.625 26.4869 134.625 26.2498V25.182H135.471V24.7124ZM127.737 25.5923V27.0754H127.215V25.7603C127.215 25.3597 127.045 25.1373 126.692 25.1373C126.349 25.1373 126.11 25.3552 126.11 25.7654V27.0754H125.587V25.7603C125.587 25.3597 125.413 25.1373 125.07 25.1373C124.716 25.1373 124.487 25.3552 124.487 25.7654V27.0754H123.965V24.7124H124.483V25.0038C124.677 24.7271 124.925 24.653 125.179 24.653C125.543 24.653 125.801 24.8114 125.965 25.0734C126.185 24.7418 126.498 24.6479 126.802 24.653C127.379 24.658 127.737 25.0338 127.737 25.5923Z" fill="#231F20"/>
<path d="M140.878 20.6967H133.039V6.70215H140.878V20.6967Z" fill="#FF5F00"/>
<path d="M133.538 13.7003C133.538 10.8615 134.876 8.33268 136.96 6.70304C135.436 5.51136 133.513 4.80008 131.423 4.80008C126.476 4.80008 122.465 8.7848 122.465 13.7003C122.465 18.6159 126.476 22.6006 131.423 22.6006C133.513 22.6006 135.436 21.8893 136.96 20.6976C134.876 19.068 133.538 16.5392 133.538 13.7003Z" fill="#EB001B"/>
<path d="M151.457 13.7003C151.457 18.6159 147.446 22.6006 142.498 22.6006C140.408 22.6006 138.485 21.8893 136.961 20.6976C139.045 19.068 140.383 16.5392 140.383 13.7003C140.383 10.8615 139.045 8.33268 136.961 6.70304C138.485 5.51136 140.408 4.80008 142.498 4.80008C147.446 4.80008 151.457 8.7848 151.457 13.7003Z" fill="#F79E1B"/>
<rect x="57.8281" y="0.5" width="45.3448" height="31" rx="3.5" fill="#B3DEE5" stroke="#B3DEE5"/>
<path d="M77.9058 21.9467H74.8203L76.7502 10.7461H79.8356L77.9058 21.9467Z" fill="#15195A"/>
<path d="M89.0916 11.0198C88.483 10.7932 87.5178 10.543 86.3242 10.543C83.2771 10.543 81.1314 12.0681 81.1183 14.2485C81.093 15.8572 82.6545 16.7508 83.8225 17.2872C85.0162 17.8353 85.422 18.193 85.422 18.6816C85.4098 19.432 84.4574 19.7778 83.569 19.7778C82.3372 19.7778 81.6771 19.5995 80.674 19.1821L80.2677 19.0031L79.8359 21.5174C80.5596 21.8268 81.8929 22.1015 83.2771 22.1135C86.5147 22.1135 88.6224 20.612 88.6474 18.2884C88.6597 17.0133 87.8351 16.0364 86.0574 15.238C84.9782 14.7255 84.3173 14.38 84.3173 13.8556C84.33 13.3789 84.8763 12.8906 86.0945 12.8906C87.0976 12.8667 87.8346 13.093 88.3929 13.3195L88.672 13.4384L89.0916 11.0198Z" fill="#15195A"/>
<path fill-rule="evenodd" clip-rule="evenodd" d="M94.6138 10.7461H97.0004L99.4897 21.9465H96.6328C96.6328 21.9465 96.3532 20.6596 96.2646 20.2664H92.3031C92.1885 20.5641 91.6555 21.9465 91.6555 21.9465H88.418L93.0011 11.6754C93.3187 10.9485 93.8778 10.7461 94.6138 10.7461ZM94.4233 14.8448C94.4233 14.8448 93.4455 17.3352 93.1914 17.9786H95.7561C95.6292 17.4186 95.0449 14.7376 95.0449 14.7376L94.8292 13.7725C94.7384 14.021 94.6071 14.3626 94.5186 14.5931C94.4585 14.7493 94.4181 14.8544 94.4233 14.8448Z" fill="#15195A"/>
<path fill-rule="evenodd" clip-rule="evenodd" d="M61.4492 10.7461H66.4135C67.0864 10.7697 67.6324 10.9722 67.8101 11.6876L68.8893 16.8353C68.889 16.8347 68.8888 16.8342 68.8886 16.8337C68.8887 16.834 68.8889 16.8344 68.889 16.8348L69.2192 18.3838L72.2409 10.7461H75.5036L70.6537 21.9348H67.3908L64.6407 12.2023C63.6919 11.6817 62.6091 11.263 61.3984 10.9724L61.4492 10.7461Z" fill="#15195A"/>
<path d="M0.984375 0.75C0.984375 0.335786 1.32016 0 1.73437 0H46.5792C46.9934 0 47.3292 0.335786 47.3292 0.75V31.25C47.3292 31.6642 46.9934 32 46.5792 32H1.73437C1.32016 32 0.984375 31.6642 0.984375 31.25V0.75Z" fill="url(#paint0_linear_1030_12906)"/>
<path d="M18.4236 15.526H24.6987C24.6427 14.168 24.3267 12.7679 23.3682 11.8686C22.2264 10.7974 20.2265 10.4 18.4395 10.4C16.5796 10.4 14.5226 10.8358 13.3748 11.9852C12.385 12.9753 12.1711 14.5684 12.1711 15.9997C12.1711 17.499 12.5897 19.2429 13.6634 20.2474C14.8052 21.3163 16.6553 21.6 18.4395 21.6C20.1728 21.6 22.0503 21.2796 23.1855 20.2649C24.3174 19.2513 24.7086 17.5441 24.7086 15.9997V15.9925H18.4236V15.526Z" fill="white"/>
<path d="M25.1199 15.9927V21.3496H33.8491V21.3423C35.1264 21.2726 36.1425 20.1196 36.1425 18.7039C36.1425 17.2876 35.1264 16.0607 33.8491 15.9903V15.9927H25.1199Z" fill="white"/>
<path d="M33.7497 10.6243C34.9946 10.6243 35.9827 11.7058 35.9827 13.0704C35.9827 14.3622 35.0753 15.4172 33.9209 15.5261H25.1198V10.6165H33.4743C33.5256 10.6102 33.5855 10.6146 33.6441 10.6189C33.6806 10.6216 33.7166 10.6243 33.7497 10.6243Z" fill="white"/>
<path d="M113.676 44.2069C113.676 42.9881 114.664 42 115.883 42H157.814C159.033 42 160.021 42.9881 160.021 44.2069V71.7931C160.021 73.0119 159.033 74 157.814 74H115.883C114.664 74 113.676 73.0119 113.676 71.7931V44.2069Z" fill="#B3DEE5"/>
<path fill-rule="evenodd" clip-rule="evenodd" d="M134.802 58.2049L135.003 56.9182L134.554 56.9076H132.408L133.899 47.412C133.904 47.3833 133.919 47.3566 133.941 47.3376C133.963 47.3186 133.991 47.3082 134.02 47.3082H137.639C138.841 47.3082 139.67 47.5591 140.103 48.0546C140.306 48.287 140.435 48.5299 140.497 48.7972C140.563 49.0777 140.564 49.4127 140.5 49.8215L140.495 49.8512V50.1131L140.698 50.2286C140.869 50.3196 141.005 50.4238 141.109 50.543C141.283 50.7418 141.395 50.9944 141.443 51.2938C141.492 51.6017 141.475 51.9683 141.395 52.3832C141.302 52.8604 141.153 53.2761 140.951 53.6161C140.765 53.9295 140.528 54.1895 140.247 54.3909C139.978 54.5823 139.659 54.7275 139.298 54.8205C138.949 54.9119 138.55 54.958 138.113 54.958H137.831C137.63 54.958 137.434 55.0308 137.281 55.1613C137.127 55.2946 137.025 55.4767 136.994 55.6758L136.973 55.7917L136.616 58.0597L136.6 58.143C136.596 58.1693 136.588 58.1825 136.577 58.1914C136.568 58.1995 136.554 58.2049 136.54 58.2049H134.802Z" fill="#28356A"/>
<path fill-rule="evenodd" clip-rule="evenodd" d="M140.891 49.8815C140.88 49.9508 140.867 50.0217 140.854 50.0945C140.376 52.5547 138.744 53.4047 136.658 53.4047H135.597C135.342 53.4047 135.127 53.5905 135.087 53.8431L134.389 58.2859C134.364 58.4518 134.491 58.6012 134.658 58.6012H136.541C136.764 58.6012 136.953 58.4385 136.988 58.2177L137.007 58.1217L137.361 55.8625L137.384 55.7386C137.419 55.517 137.609 55.3543 137.832 55.3543H138.113C139.938 55.3543 141.366 54.6106 141.783 52.4583C141.958 51.5592 141.868 50.8084 141.406 50.2805C141.266 50.1213 141.093 49.9891 140.891 49.8815Z" fill="#298FC2"/>
<path fill-rule="evenodd" clip-rule="evenodd" d="M140.391 49.6816C140.318 49.6602 140.243 49.6409 140.166 49.6235C140.088 49.6064 140.009 49.5913 139.927 49.5781C139.641 49.5317 139.327 49.5096 138.991 49.5096H136.155C136.085 49.5096 136.019 49.5255 135.959 49.5541C135.828 49.6173 135.731 49.7416 135.708 49.8939L135.104 53.7312L135.087 53.8431C135.127 53.5905 135.342 53.4047 135.597 53.4047H136.658C138.744 53.4047 140.376 52.5547 140.854 50.0945C140.867 50.0217 140.88 49.9508 140.891 49.8815C140.77 49.8171 140.639 49.7621 140.498 49.7153C140.463 49.7036 140.428 49.6925 140.391 49.6816Z" fill="#22284F"/>
<path fill-rule="evenodd" clip-rule="evenodd" d="M135.708 49.8939C135.731 49.7416 135.828 49.6173 135.959 49.5541C136.019 49.5255 136.085 49.5096 136.155 49.5096H138.991C139.327 49.5096 139.641 49.5317 139.927 49.5781C140.009 49.5913 140.088 49.6064 140.166 49.6235C140.243 49.6409 140.318 49.6602 140.391 49.6816C140.428 49.6925 140.463 49.7036 140.498 49.7153C140.639 49.7621 140.77 49.8171 140.891 49.8815C141.033 48.9723 140.89 48.3533 140.4 47.7928C139.86 47.1756 138.886 46.9115 137.64 46.9115H134.021C133.766 46.9115 133.549 47.0974 133.51 47.3504L132.002 56.9437C131.973 57.1334 132.118 57.3047 132.309 57.3047H134.543L135.708 49.8939Z" fill="#28356A"/>
<path fill-rule="evenodd" clip-rule="evenodd" d="M124.139 60.8167H121.5C121.32 60.8167 121.166 60.9484 121.138 61.1274L120.071 67.9207C120.05 68.0548 120.153 68.1756 120.289 68.1756H121.548C121.729 68.1756 121.882 68.044 121.911 67.8646L122.198 66.0323C122.226 65.8529 122.38 65.7212 122.56 65.7212H123.396C125.134 65.7212 126.137 64.8767 126.399 63.2033C126.517 62.4712 126.404 61.896 126.062 61.4931C125.687 61.0507 125.022 60.8167 124.139 60.8167ZM124.443 63.2979C124.299 64.2485 123.576 64.2485 122.876 64.2485H122.478L122.757 62.4731C122.774 62.3658 122.866 62.2868 122.975 62.2868H123.157C123.634 62.2868 124.083 62.2868 124.315 62.5595C124.454 62.7221 124.496 62.9639 124.443 63.2979Z" fill="#28356A"/>
<path fill-rule="evenodd" clip-rule="evenodd" d="M132.093 63.2159H130.83C130.722 63.2159 130.629 63.2949 130.613 63.4022L130.557 63.757L130.468 63.6284C130.195 63.2298 129.585 63.0965 128.976 63.0965C127.58 63.0965 126.387 64.1584 126.155 65.6478C126.034 66.3908 126.206 67.1013 126.626 67.5967C127.011 68.0522 127.562 68.2421 128.217 68.2421C129.342 68.2421 129.966 67.5157 129.966 67.5157L129.91 67.8683C129.889 68.003 129.992 68.1239 130.127 68.1239H131.265C131.446 68.1239 131.599 67.9922 131.627 67.8128L132.31 63.4708C132.332 63.3371 132.228 63.2159 132.093 63.2159ZM130.332 65.685C130.21 66.4097 129.637 66.8963 128.907 66.8963C128.54 66.8963 128.247 66.7781 128.058 66.5543C127.871 66.3319 127.801 66.0154 127.86 65.6629C127.974 64.9444 128.556 64.4419 129.276 64.4419C129.635 64.4419 129.926 64.5617 130.119 64.7874C130.311 65.0156 130.387 65.334 130.332 65.685Z" fill="#28356A"/>
<path fill-rule="evenodd" clip-rule="evenodd" d="M138.726 63.3245H137.456C137.335 63.3245 137.221 63.385 137.152 63.4861L135.401 66.076L134.659 63.5871C134.612 63.4314 134.469 63.3245 134.307 63.3245H133.059C132.908 63.3245 132.802 63.4733 132.85 63.6166L134.249 67.7374L132.934 69.6011C132.831 69.7479 132.935 69.9497 133.114 69.9497H134.382C134.502 69.9497 134.615 69.8908 134.683 69.7918L138.906 63.6712C139.007 63.5248 138.903 63.3245 138.726 63.3245Z" fill="#28356A"/>
<path fill-rule="evenodd" clip-rule="evenodd" d="M142.959 60.8167H140.32C140.139 60.8167 139.986 60.9484 139.958 61.1274L138.891 67.9207C138.869 68.0548 138.973 68.1756 139.107 68.1756H140.462C140.587 68.1756 140.695 68.0835 140.715 67.9579L141.018 66.0323C141.045 65.8529 141.199 65.7212 141.379 65.7212H142.214C143.953 65.7212 144.956 64.8767 145.218 63.2033C145.336 62.4712 145.223 61.896 144.881 61.4931C144.506 61.0507 143.842 60.8167 142.959 60.8167ZM143.263 63.2979C143.119 64.2485 142.396 64.2485 141.696 64.2485H141.298L141.578 62.4731C141.594 62.3658 141.686 62.2868 141.795 62.2868H141.977C142.453 62.2868 142.903 62.2868 143.135 62.5595C143.274 62.7221 143.316 62.9639 143.263 63.2979Z" fill="#298FC2"/>
<path fill-rule="evenodd" clip-rule="evenodd" d="M150.911 63.2159H149.649C149.54 63.2159 149.448 63.2949 149.432 63.4022L149.376 63.757L149.287 63.6284C149.014 63.2298 148.404 63.0965 147.795 63.0965C146.399 63.0965 145.207 64.1584 144.975 65.6478C144.854 66.3908 145.025 67.1013 145.445 67.5967C145.831 68.0522 146.381 68.2421 147.036 68.2421C148.161 68.2421 148.785 67.5157 148.785 67.5157L148.729 67.8683C148.708 68.003 148.811 68.1239 148.947 68.1239H150.084C150.264 68.1239 150.418 67.9922 150.446 67.8128L151.129 63.4708C151.15 63.3371 151.047 63.2159 150.911 63.2159ZM149.15 65.685C149.029 66.4097 148.455 66.8963 147.725 66.8963C147.358 66.8963 147.064 66.7781 146.876 66.5543C146.689 66.3319 146.619 66.0154 146.678 65.6629C146.792 64.9444 147.374 64.4419 148.094 64.4419C148.453 64.4419 148.744 64.5617 148.936 64.7874C149.13 65.0156 149.206 65.334 149.15 65.685Z" fill="#298FC2"/>
<path fill-rule="evenodd" clip-rule="evenodd" d="M152.296 61.0034L151.213 67.921C151.192 68.0552 151.295 68.1759 151.43 68.1759H152.518C152.699 68.1759 152.853 68.0443 152.881 67.8649L153.949 61.072C153.97 60.9379 153.866 60.8167 153.732 60.8167H152.513C152.405 60.817 152.312 60.8961 152.296 61.0034Z" fill="#298FC2"/>
<path d="M57.3281 44.2069C57.3281 42.9881 58.3162 42 59.535 42H101.466C102.685 42 103.673 42.9881 103.673 44.2069V71.7931C103.673 73.0119 102.685 74 101.466 74H59.535C58.3162 74 57.3281 73.0119 57.3281 71.7931V44.2069Z" fill="#B3DEE5"/>
<path fill-rule="evenodd" clip-rule="evenodd" d="M79.6355 61.2946V57.685H81.5855C82.3894 57.6855 83.0651 57.4325 83.6124 56.9262C84.1656 56.4457 84.4749 55.7548 84.4591 55.0347C84.4701 54.3185 84.1614 53.6328 83.6124 53.1538C83.0699 52.6447 82.3402 52.3669 81.5855 52.3822H78.4553V61.2946H79.6355ZM79.6355 56.5906V53.4788H81.6148C82.056 53.4667 82.4812 53.6389 82.7826 53.9516C83.0858 54.2376 83.2569 54.6304 83.2569 55.0407C83.2569 55.451 83.0858 55.8438 82.7826 56.1298C82.4775 56.4359 82.0536 56.6032 81.6148 56.5906H79.6355Z" fill="#31525B"/>
<path fill-rule="evenodd" clip-rule="evenodd" d="M89.2446 55.6761C88.7397 55.2238 88.0511 54.9977 87.1788 54.9977C86.0581 54.9977 85.2119 55.3959 84.6401 56.1924L85.6796 56.8274C86.0638 56.2879 86.5855 56.0181 87.2447 56.0181C87.6651 56.0134 88.0718 56.1624 88.3839 56.4356C88.6951 56.6851 88.8741 57.0572 88.8714 57.4489V57.7106C88.4179 57.4617 87.8407 57.3372 87.1399 57.3372C86.3189 57.3382 85.6625 57.525 85.1709 57.8976C84.6792 58.2702 84.4334 58.772 84.4334 59.403C84.4227 59.9776 84.6796 60.5262 85.1328 60.8964C85.599 61.2946 86.1784 61.4937 86.8709 61.4937C87.6821 61.4937 88.3321 61.1452 88.8209 60.4484H88.8722V61.2946H90.0011V57.5364C90.0016 56.7484 89.7494 56.1284 89.2446 55.6761ZM86.0433 60.1746C85.7961 60.0017 85.6502 59.7235 85.6518 59.4279C85.6518 59.0958 85.8124 58.8192 86.1357 58.5916C86.4558 58.3674 86.8555 58.2553 87.335 58.2553C87.9933 58.2553 88.5064 58.3975 88.8744 58.682C88.8744 59.1627 88.6789 59.5815 88.288 59.9385C87.9358 60.2801 87.4584 60.4724 86.9604 60.4732C86.6283 60.4793 86.3043 60.3738 86.0433 60.1746Z" fill="#31525B"/>
<path fill-rule="evenodd" clip-rule="evenodd" d="M96.4815 55.1968L92.5405 63.9826H91.3222L92.7847 60.9084L90.1932 55.1968H91.4761L93.3491 59.5772H93.3748L95.1965 55.1968H96.4815Z" fill="#31525B"/>
<path fill-rule="evenodd" clip-rule="evenodd" d="M74.8661 56.9077C74.8666 56.5588 74.8362 56.2105 74.7752 55.8667H69.7977V57.8386H72.6486C72.5307 58.475 72.1499 59.0371 71.5944 59.3945V60.6745H73.2959C74.2921 59.7835 74.8661 58.4658 74.8661 56.9077Z" fill="#4285F4"/>
<path fill-rule="evenodd" clip-rule="evenodd" d="M69.7977 61.9111C71.222 61.9111 72.4213 61.4574 73.2959 60.6752L71.5944 59.3952C71.1209 59.7067 70.511 59.8844 69.7977 59.8844C68.421 59.8844 67.2524 58.9842 66.8346 57.771H65.0818V59.0901C65.9777 60.8195 67.8024 61.911 69.7977 61.9111Z" fill="#34A853"/>
<path fill-rule="evenodd" clip-rule="evenodd" d="M66.8346 57.771C66.6137 57.1353 66.6137 56.4469 66.8347 55.8112V54.4921H65.0819C64.3325 55.9386 64.3324 57.6436 65.0818 59.0901L66.8346 57.771Z" fill="#FBBC04"/>
<path fill-rule="evenodd" clip-rule="evenodd" d="M69.7977 53.6978C70.5504 53.6858 71.2777 53.9617 71.8224 54.4658L73.3289 53.0044C72.3736 52.1341 71.1081 51.6563 69.7977 51.6711C67.8024 51.6712 65.9778 52.7627 65.0819 54.4921L66.8347 55.8112C67.2525 54.598 68.421 53.6978 69.7977 53.6978Z" fill="#EA4335"/>
<path d="M0.984375 44.2069C0.984375 42.9881 1.97244 42 3.19127 42H45.1223C46.3411 42 47.3292 42.9881 47.3292 44.2069V71.7931C47.3292 73.0119 46.3411 74 45.1223 74H3.19127C1.97244 74 0.984375 73.0119 0.984375 71.7931V44.2069Z" fill="#B3DEE5"/>
<path fill-rule="evenodd" clip-rule="evenodd" d="M15.0294 53.9412C14.6923 54.345 14.1529 54.6635 13.6135 54.618C13.5461 54.072 13.8102 53.4919 14.1192 53.1336C14.4563 52.7185 15.0462 52.4227 15.5238 52.4C15.5799 52.9687 15.3608 53.5261 15.0294 53.9412ZM15.5181 54.7261C15.043 54.6984 14.6094 54.8707 14.2592 55.0099C14.0338 55.0995 13.843 55.1754 13.6978 55.1754C13.5349 55.1754 13.3362 55.0954 13.113 55.0057C12.8207 54.8882 12.4864 54.7537 12.1359 54.7602C11.3325 54.7716 10.5853 55.2322 10.1751 55.9659C9.33239 57.4332 9.95602 59.6057 10.7707 60.8C11.1696 61.3915 11.6471 62.0398 12.2764 62.0171C12.5532 62.0065 12.7524 61.9209 12.9584 61.8324C13.1957 61.7305 13.4422 61.6246 13.827 61.6246C14.1986 61.6246 14.4342 61.7278 14.6605 61.8267C14.8756 61.9209 15.0822 62.0112 15.3889 62.0057C16.0407 61.9943 16.4508 61.4142 16.8497 60.8228C17.2802 60.1879 17.4693 59.5684 17.498 59.4744L17.5014 59.4635C17.5014 59.4635 17.4954 59.4603 17.486 59.456C17.3421 59.3893 16.2422 58.8796 16.2317 57.5128C16.2211 56.3656 17.1041 55.7843 17.2431 55.6928C17.2515 55.6872 17.2572 55.6835 17.2598 55.6815C16.698 54.8398 15.8215 54.7488 15.5181 54.7261ZM20.0296 61.9431V53.0768H23.3164C25.0131 53.0768 26.1986 54.2597 26.1986 55.9886C26.1986 57.7175 24.9906 58.9118 23.2714 58.9118H21.3893V61.9431H20.0296ZM21.3893 54.237H22.9568C24.1366 54.237 24.8108 54.8739 24.8108 55.9943C24.8108 57.1147 24.1366 57.7573 22.9512 57.7573H21.3893V54.237ZM30.6876 60.8796C30.328 61.5735 29.5358 62.0114 28.6818 62.0114C27.4177 62.0114 26.5357 61.2493 26.5357 60.1005C26.5357 58.963 27.3896 58.309 28.9684 58.2123L30.6651 58.1099V57.6208C30.6651 56.8986 30.1988 56.5062 29.3673 56.5062C28.6818 56.5062 28.1818 56.8645 28.0807 57.4104H26.8559C26.8952 56.2616 27.9627 55.4256 29.4066 55.4256C30.9629 55.4256 31.9742 56.2502 31.9742 57.5299V61.9431H30.7157V60.8796H30.6876ZM29.047 60.9592C28.3223 60.9592 27.8616 60.6066 27.8616 60.0663C27.8616 59.509 28.3054 59.1848 29.1538 59.1336L30.6651 59.037V59.5374C30.6651 60.3678 29.9684 60.9592 29.047 60.9592ZM36.1486 62.29C35.6036 63.8427 34.98 64.3545 33.6541 64.3545C33.5529 64.3545 33.2158 64.3431 33.1372 64.3204V63.2569C33.2214 63.2682 33.4293 63.2796 33.5361 63.2796C34.1372 63.2796 34.4743 63.0237 34.6822 62.3583L34.8058 61.9659L32.5023 55.5109H33.9237L35.525 60.7488H35.553L37.1543 55.5109H38.5364L36.1486 62.29Z" fill="black"/>
<defs>
<linearGradient id="paint0_linear_1030_12906" x1="13.5549" y1="-4.05225" x2="2.26794" y2="30.5556" gradientUnits="userSpaceOnUse">
<stop stop-color="#222E72"/>
<stop offset="0.591647" stop-color="#40CBFF"/>
<stop offset="1" stop-color="#3CB792"/>
</linearGradient>
</defs>
</svg>
